<?xml version="1.0" encoding="UTF-8"?>
<svg width="1370px" height="255px" viewBox="0 0 1370 255" version="1.1" xmlns="http://www.w3.org/2000/svg" xmlns:xlink="http://www.w3.org/1999/xlink">
    <!-- Generator: Sketch 48.2 (47327) - http://www.bohemiancoding.com/sketch -->
    <title>logo-inline</title>
    <desc>Created with Sketch.</desc>
    <defs></defs>
    <g id="Page-1" stroke="none" stroke-width="1" fill="none" fill-rule="evenodd">
        <g id="logo-inline" fill="#2481D7">
            <text id="MessageBird" font-family="Roboto-Black, Roboto" font-size="155" font-weight="700" letter-spacing="7.80000019">
                <tspan x="368" y="179">MessageBir</tspan>
                <tspan x="1282.15235" y="179">d</tspan>
            </text>
            <g id="logo-cropped">
                <path d="M5.73144834,86.0000008 C2.02782311,75.900735 0,64.9457929 0,53.5 L0,51 L138.387068,51 C148.324572,51 156.380511,42.9411255 156.380511,33 L0,33 L0,0 L184.733673,5.68434189e-14 C186.583943,0.109914158 188.244533,0 189.930785,0 C225.990886,0 238.943785,20.3347584 227.916942,42.0573584 L185.180846,116.105422 C182.282407,121.127495 184.002469,127.549194 189.022713,130.448689 C194.042956,133.348184 200.462315,131.627495 203.360754,126.605422 L248.500261,50.5332031 C276.251647,9.15916937 314.57091,43.2871094 309.553207,67.1425781 C260.854157,67.1425781 273.812325,255 145.946813,255 L31.9883427,255 L91.4198094,164 L137.092897,164 C142.061649,164 146.089619,159.970563 146.089619,155 C146.089619,150.029437 142.061649,146 137.092897,146 L95.7068516,146 C93.0053322,145.333333 90.5325863,145 88.2886142,145 C57.5393248,145 30.4615428,128.708629 14.6530236,104 L99.4012758,104 C109.33878,104 117.394719,95.9411255 117.394719,86 L5.73144235,86 L5.73144834,86.0000008 Z M279.39818,54 C282.43464,54 284.896177,51.5375661 284.896177,48.5 C284.896177,45.4624339 282.43464,43 279.39818,43 C276.361721,43 273.900184,45.4624339 273.900184,48.5 C273.900184,51.5375661 276.361721,54 279.39818,54 Z" id="Combined-Shape"></path>
            </g>
        </g>
    </g>
</svg>